<?xml version="1.0" encoding="UTF-8" standalone="no"?>
<svg
   xmlns:dc="http://purl.org/dc/elements/1.1/"
   xmlns:cc="http://creativecommons.org/ns#"
   xmlns:rdf="http://www.w3.org/1999/02/22-rdf-syntax-ns#"
   xmlns:svg="http://www.w3.org/2000/svg"
   xmlns="http://www.w3.org/2000/svg"
   xmlns:sodipodi="http://sodipodi.sourceforge.net/DTD/sodipodi-0.dtd"
   xmlns:inkscape="http://www.inkscape.org/namespaces/inkscape"
   inkscape:version="1.0 (4035a4f, 2020-05-01)"
   sodipodi:docname="foreground.svg"
   id="svg8"
   version="1.1"
   viewBox="0 0 28.575001 28.575001"
   height="108"
   width="108">
  <sodipodi:namedview
     inkscape:current-layer="svg8"
     inkscape:window-maximized="1"
     inkscape:window-y="23"
     inkscape:window-x="0"
     inkscape:cy="54"
     inkscape:cx="54"
     inkscape:zoom="5.9907407"
     showgrid="false"
     id="namedview840"
     inkscape:window-height="855"
     inkscape:window-width="1440"
     inkscape:pageshadow="2"
     inkscape:pageopacity="0"
     guidetolerance="10"
     gridtolerance="10"
     objecttolerance="10"
     borderopacity="1"
     bordercolor="#666666"
     pagecolor="#ffffff" />
  <defs
     id="defs2" />
  <metadata
     id="metadata5">
    <rdf:RDF>
      <cc:Work
         rdf:about="">
        <dc:format>image/svg+xml</dc:format>
        <dc:type
           rdf:resource="http://purl.org/dc/dcmitype/StillImage" />
        <dc:title />
      </cc:Work>
    </rdf:RDF>
  </metadata>
  <g
     id="layer1">
    <g
       style="font-size:8.76074px;line-height:0.85;font-family:KouzanBrushFontGyousyoOTF;-inkscape-font-specification:KouzanBrushFontGyousyoOTF;stroke-width:0.0456289"
       id="text835"
       aria-label="道場">
      <path
         id="path859"
         style="font-size:8.76074px;fill:#fefefe;fill-opacity:1;stroke-width:0.0456289"
         d="m 15.995845,13.906408 0.03504,-0.0088 0.01752,0.01752 c 0.367951,-0.01752 0.735902,-0.03504 1.112614,-0.05257 0.376712,-0.01752 0.727141,-0.07885 1.060049,-0.192736 -1.086331,-0.0438 -2.146381,-0.183976 -3.180148,-0.446798 -1.033768,-0.254061 -2.050014,-0.578209 -3.057499,-0.963681 v -0.05257 l 0.11389,-0.0088 0.166454,-0.09637 c 0.07009,-0.03504 0.11389,-0.105129 0.131411,-0.192736 0.01752,-0.07885 0.03504,-0.166454 0.0438,-0.23654 0.0088,-0.08761 0,-0.166454 -0.01752,-0.245301 -0.01752,-0.06133 -0.05256,-0.131411 -0.105129,-0.192736 h -0.03504 L 12.14112,10.980321 12.035991,10.85767 11.799451,10.568566 c 0.0088,-0.131411 0.02628,-0.23654 0.06133,-0.324148 0.03504,-0.09637 0.07885,-0.175214 0.157693,-0.2540611 l 0.11389,-0.061325 v -0.026282 c 0.03504,0.00876 0.06133,0.00876 0.08761,-0.00876 0.01752,-0.017521 0.0438,-0.035043 0.06133,-0.061325 l 0.06133,-0.1051288 0.175214,-0.017521 V 9.683731 L 12.37766,9.648688 12.342617,9.5786021 c -0.09637,-0.00876 -0.192737,-0.026282 -0.280344,-0.052564 -0.08761,-0.026282 -0.166454,-0.070086 -0.23654,-0.1138896 l -0.315387,0.026282 -0.0438,0.078847 -0.07885,0.017521 c -0.01752,0.035043 -0.02628,0.070086 -0.03504,0.1051289 -0.0088,0.035043 -0.01752,0.070086 -0.0438,0.1138896 -0.131411,0.096368 -0.2453,0.1839755 -0.376712,0.2628221 -0.131411,0.07885 -0.254061,0.157693 -0.385472,0.219019 l -0.183976,-0.07009 h -0.0088 v 0.06133 c 0.0088,0.0438 0.03504,0.07885 0.07885,0.105129 0.03504,0.03504 0.07885,0.07009 0.131411,0.113889 0.11389,0.0088 0.22778,0 0.332908,-0.02628 0.11389,-0.01752 0.219019,-0.05256 0.306626,-0.09637 l 0.07885,0.01752 c 0.05256,0.22778 0.148933,0.429277 0.289104,0.622013 0.148933,0.192736 0.280344,0.385473 0.385473,0.578209 0,0.06133 0,0.131411 -0.0088,0.201497 -0.0088,0.07009 -0.03504,0.131411 -0.06133,0.175215 -0.05256,0.0438 -0.105129,0.07885 -0.148932,0.105129 -0.05256,0.02628 -0.11389,0.05256 -0.183976,0.07885 l -0.07885,-0.01752 -0.113889,0.0438 -0.157694,-0.03504 -0.183975,0.02628 v 0.05256 h -0.05256 l -0.06133,0.105129 0.01752,0.131411 0.105129,0.07009 0.09637,0.175215 0.05256,0.08761 0.245301,-0.03504 c 0.814749,0.07009 1.568172,0.271583 2.295314,0.604491 0.718381,0.332909 1.471804,0.534406 2.277792,0.595731 z m -0.280343,-1.077571 0.06133,-0.02628 0.01752,-0.03504 0.280344,-0.06133 0.01752,-0.03504 -0.01752,-0.727141 0.01752,-0.01752 -0.03504,-0.516883 0.01752,-0.03504 -0.0088,-0.122651 0.01752,-0.07009 -0.01752,-0.131412 0.02628,-0.09637 -0.0088,-0.210257 0.09637,-0.692099 h 0.06133 l 0.01752,-0.061325 h 0.05256 l 0.03504,-0.070086 v -0.00876 C 16.232385,9.850185 16.109735,9.7888598 15.987085,9.7187739 15.864434,9.648688 15.741784,9.5786021 15.610373,9.5172769 l -0.06132,0.00876 -0.183976,-0.052564 c -0.09637,0.00876 -0.183976,0.043804 -0.280344,0.078847 -0.09637,0.043804 -0.183975,0.096368 -0.271583,0.1401718 v 0.043804 c -0.105129,0.070086 -0.219018,0.1226504 -0.350429,0.1664541 -0.122651,0.035043 -0.23654,0.078847 -0.35043,0.1051285 l 0.148933,0.394234 0.0438,0.0088 0.289105,-0.01752 0.01752,-0.0438 c 0.0438,-0.0088 0.08761,-0.02628 0.131411,-0.05256 0.0438,-0.01752 0.08761,-0.02628 0.140172,-0.02628 v -0.0438 l 0.11389,0.0088 0.05256,0.201497 0.175215,0.157693 0.166454,1.121375 c 0.0088,0.08761 -0.0088,0.175215 -0.05256,0.254061 -0.0438,0.07885 -0.07885,0.148933 -0.09637,0.245301 -0.131411,-0.0088 -0.271583,-0.0088 -0.411755,-0.0088 -0.140172,0 -0.271583,0.01752 -0.394233,0.06133 l -0.166455,-0.0088 0.09637,-0.192737 c 0.07885,-0.07885 0.148932,-0.175214 0.23654,-0.280343 0.07885,-0.08761 0.183975,-0.175215 0.289104,-0.23654 l 0.03504,-0.07009 0.12265,-0.01752 0.02628,-0.08761 0.183975,-0.0088 v -0.105129 c -0.07009,-0.0088 -0.131411,-0.02628 -0.192736,-0.0438 -0.07009,-0.0088 -0.131411,-0.0438 -0.192736,-0.08761 l -0.192737,0.01752 v 0.0438 l -0.175215,0.0088 -0.02628,0.06133 -0.175215,0.05256 -0.113889,-0.0088 c 0.0088,-0.07885 0.0088,-0.157693 0.01752,-0.23654 0,-0.07009 0.02628,-0.131411 0.07885,-0.183976 l 0.07009,0.02628 0.07885,-0.02628 0.06133,0.03504 0.429276,-0.02628 0.08761,-0.09637 0.122651,-0.05256 c -0.0088,-0.05256 -0.0438,-0.08761 -0.09637,-0.09637 -0.05256,0 -0.09637,-0.0088 -0.131411,-0.02628 -0.08761,0 -0.175215,0.0088 -0.254062,0.02628 -0.08761,0.0088 -0.166454,0.02628 -0.23654,0.0438 -0.131411,-0.05256 -0.262822,-0.12265 -0.385473,-0.201497 -0.131411,-0.07009 -0.271582,-0.12265 -0.411754,-0.148933 l -0.315387,-0.0088 0.192736,0.23654 0.05256,0.367951 c -0.02628,0.175215 -0.0438,0.350429 -0.05256,0.516883 -0.01752,0.183976 -0.05256,0.35043 -0.105129,0.516884 v 0.07885 l 0.122651,0.166454 0.06133,0.01752 v 0.03504 l 0.105129,0.11389 0.210258,0.08761 h 0.02628 l 0.0438,-0.05256 c 0.02628,-0.0088 0.0438,-0.0088 0.07008,0.0088 0.01752,0.02628 0.02628,0.0438 0.02628,0.07009 0.210257,0.01752 0.394233,0.0088 0.578209,-0.02628 0.175214,-0.01752 0.350429,-0.0438 0.543165,-0.06132 l 0.148933,0.01752 0.148933,0.227779 0.05256,0.0438 v 0.03504 z m -1.541891,-0.998725 -0.01752,0.01752 -0.03504,-0.07885 0.02628,-0.289104 0.148933,0.05256 c 0,0.06133 -0.01752,0.11389 -0.0438,0.157693 -0.02628,0.0438 -0.05256,0.08761 -0.07885,0.140172 z M 13.761857,9.9465532 c 0.157693,-0.070086 0.324147,-0.1576934 0.48184,-0.2540615 0.166454,-0.096368 0.324148,-0.1489326 0.499362,-0.1664541 v -0.035043 l 0.210258,-0.070086 -0.0088,-0.096368 C 14.86571,9.2807369 14.795624,9.2369332 14.725538,9.2018902 14.655452,9.175608 14.576605,9.1493258 14.497759,9.1405651 l -0.385473,0.035043 0.06133,0.026282 0.0438,0.087607 c -0.06133,0.1138897 -0.12265,0.2277793 -0.192736,0.3153867 -0.07885,0.1051289 -0.166454,0.2102578 -0.262822,0.3066259 z M 12.754371,9.447191 c 0.140172,-0.017522 0.271583,-0.043804 0.402994,-0.070086 0.131412,-0.026282 0.245301,-0.078847 0.359191,-0.1752148 v -0.035043 l 0.876074,-0.271583 0.131411,0.026282 c 0.131411,0.026282 0.245301,0.017521 0.332908,-0.035043 0.09637,-0.052564 0.192736,-0.087607 0.289105,-0.1138896 l 0.166454,0.00876 -0.07009,0.096368 v 0.026282 l 0.01752,0.026282 c 0.11389,-0.026282 0.219019,-0.052564 0.306626,-0.096368 0.08761,-0.035043 0.183976,-0.061325 0.280344,-0.070086 l 0.657055,0.052565 0.219019,0.00876 0.05256,-0.1314111 0.227779,-0.00876 v -0.070086 l -0.07008,-0.017521 -0.01752,-0.087607 C 16.801833,8.4659881 16.687944,8.4309451 16.591576,8.3871414 16.486447,8.3433377 16.381318,8.2907733 16.276189,8.2206873 l -0.131411,0.026282 -0.07009,-0.035043 h -0.01752 l -0.0088,0.026282 -0.09637,0.052564 c -0.210258,0.052564 -0.429277,0.096368 -0.665817,0.1226503 -0.23654,0.035043 -0.464319,0.070086 -0.683337,0.1314111 -0.09637,-0.00876 -0.175215,-0.035043 -0.245301,-0.087607 -0.07009,-0.052564 -0.148933,-0.096368 -0.245301,-0.1226503 -0.05256,0 -0.113889,0.00876 -0.166454,0.026282 -0.05256,0.017521 -0.105129,0.043804 -0.157693,0.087607 v 0.035043 c -0.157694,0.096368 -0.332908,0.1839756 -0.508123,0.2453008 -0.183976,0.061325 -0.367951,0.096368 -0.560688,0.1226503 -0.0438,0 -0.07885,-0.00876 -0.09637,-0.017521 -0.02628,-0.00876 -0.06133,-0.017521 -0.08761,-0.043804 l -0.280344,0.026282 -0.0088,0.1401718 0.35043,0.3854726 z m 1.76967,-1.0950926 c 0.06133,-0.00876 0.11389,-0.035043 0.166454,-0.061325 0.05256,-0.026282 0.105129,-0.061325 0.157693,-0.096368 v -0.043804 l 0.183976,-0.078847 0.02628,-0.043804 c 0.11389,-0.035043 0.201497,-0.087607 0.297865,-0.1489325 0.08761,-0.061325 0.183976,-0.1051289 0.280344,-0.1401719 l 0.02628,-0.052564 c 0.09637,-0.00876 0.192736,-0.026282 0.280344,-0.052564 0.08761,-0.017521 0.175215,-0.052564 0.262822,-0.1138896 l -0.12265,-0.2102578 -0.06133,-0.043804 v -0.035043 l -0.420516,-0.2190185 -0.411755,0.017521 -0.0088,0.026282 0.175215,0.061325 c -0.03504,0.1839755 -0.105129,0.3416688 -0.192736,0.4906014 -0.09637,0.1489326 -0.201497,0.3066259 -0.315387,0.4555585 h -0.03504 l -0.289104,0.271583 z m -2.584418,-0.1314111 0.140171,-0.026282 0.02628,-0.1226504 0.09637,0.00876 v 0.035043 l 0.201497,-0.00876 -0.0438,-0.1839755 C 12.193684,7.7651288 12.000948,7.6424785 11.808211,7.5461103 11.606714,7.4497422 11.396457,7.3796563 11.168677,7.3358526 l -0.03504,0.017521 0.280344,0.47308 h 0.03504 v 0.043804 l 0.06133,0.026282 -0.0088,0.043804 0.08761,0.096368 0.09637,0.017521 0.01752,0.061325 c 0.0438,0.00876 0.08761,0.017522 0.131411,0.026282 0.0438,0.00876 0.07009,0.035043 0.105129,0.078847 z m 1.533129,-0.026282 0.05256,-0.017522 -0.02628,-0.017522 v -0.070086 h 0.0438 l 0.01752,-0.035043 0.07009,0.035043 0.0438,-0.00876 0.11389,0.00876 h 0.01752 L 13.709292,8.0191903 13.68301,7.8965399 13.56912,7.7651288 13.630445,7.589914 v -0.043804 l -0.148932,0.035043 -0.35919,-0.2891044 -0.07009,-0.00876 -0.07009,0.1138896 c 0.0088,0.096368 0.01752,0.1927363 0.06133,0.2803437 0.0438,0.087607 0.07885,0.1752148 0.105129,0.2628222 h 0.03504 l -0.0088,0.035043 h 0.0438 l 0.01752,0.1051289 z" />
      <path
         id="path861"
         style="font-size:8.76074px;fill:#fefefe;fill-opacity:1;stroke-width:0.0456289"
         d="m 14.243697,21.563294 0.140172,-0.105129 0.12265,-0.07885 0.09637,-0.07885 0.2453,-0.367951 h 0.03504 l 0.35043,-0.402994 0.09637,0.01752 0.01752,0.08761 0.148932,0.113889 0.05257,0.0438 0.07885,0.131411 0.11389,0.08761 0.210258,0.183976 c 0.0438,0 0.07885,0 0.105128,-0.0088 0.02628,-0.0088 0.05257,-0.02628 0.07885,-0.05256 0.210258,-0.47308 0.429276,-0.954921 0.639534,-1.463044 0.219019,-0.499362 0.402994,-1.016246 0.58697,-1.54189 h 0.01752 l 0.105129,-0.192736 v -0.05256 h -0.0438 v -0.0438 l -0.07008,-0.01752 v -0.03504 c -0.0438,-0.05256 -0.105129,-0.08761 -0.175215,-0.11389 -0.07009,-0.02628 -0.140172,-0.0438 -0.201497,-0.07009 -0.280344,0 -0.543166,0.01752 -0.788467,0.06133 -0.262822,0.0438 -0.508123,0.105129 -0.753424,0.192736 -0.0438,0.01752 -0.08761,0.01752 -0.131411,-0.0088 -0.05256,-0.01752 -0.105129,-0.03504 -0.140172,-0.05256 l 0.0088,-0.131411 v -0.0438 h -0.02628 v -0.0438 l -0.245301,-0.148932 v -0.03504 l 1.121375,-0.201497 h 0.175215 v 0.0438 c 0.227779,-0.07009 0.464319,-0.113889 0.70962,-0.140171 0.227779,-0.02628 0.464319,-0.05257 0.71838,-0.08761 v -0.05256 l 0.11389,-0.02628 0.03504,-0.122651 v -0.105129 c -0.09637,-0.0438 -0.210258,-0.07009 -0.332908,-0.07885 -0.12265,-0.0088 -0.227779,-0.06133 -0.306626,-0.157694 h -0.07885 v 0.0438 l -0.131411,0.06133 -0.01752,0.05256 c -0.131411,0.05256 -0.280344,0.08761 -0.420516,0.09637 -0.157693,0.01752 -0.297865,0.0438 -0.438037,0.08761 h -0.07885 v -0.07885 h 0.0438 l 0.08761,-0.105128 c 0.0438,-0.280344 0.08761,-0.551927 0.131411,-0.814749 0.03504,-0.271583 0.12265,-0.516884 0.262822,-0.744663 l 0.157693,-0.03504 c 0,-0.02628 0,-0.06133 0,-0.08761 0,-0.02628 0.0088,-0.05256 0.03504,-0.07885 l -0.01752,-0.140172 c -0.07009,-0.02628 -0.140172,-0.05256 -0.210258,-0.07885 -0.07885,-0.01752 -0.148933,-0.02628 -0.219018,-0.02628 v -0.01752 l -0.455559,-0.148933 h -0.07885 v 0.06133 c -0.175214,0.07885 -0.341669,0.157694 -0.508123,0.219019 -0.166454,0.06133 -0.332908,0.113889 -0.490601,0.175214 l 0.297865,0.22778 0.280344,-0.01752 h 0.06133 l -0.01752,0.254062 h -0.06133 v 0.01752 c -0.12265,0.02628 -0.2453,0.06133 -0.367951,0.09637 -0.113889,0.0438 -0.23654,0.08761 -0.350429,0.148933 l -0.06133,-0.02628 -0.01752,-0.07009 h -0.03504 l -0.01752,-0.0438 -0.420516,-0.271583 h -0.03504 c 0.07885,0.08761 0.140172,0.175215 0.192736,0.271583 0.0438,0.08761 0.06133,0.201497 0.05257,0.324147 -0.0088,0.08761 -0.01752,0.175215 -0.0088,0.271583 0.0088,0.09637 -0.03504,0.175215 -0.12265,0.22778 0.0088,0.07885 0.0438,0.148932 0.08761,0.219018 0.0438,0.07009 0.08761,0.131411 0.140172,0.192736 v 0.06133 c -0.09637,0.03504 -0.175215,0.08761 -0.23654,0.166454 -0.07009,0.07009 -0.148933,0.113889 -0.245301,0.140172 v 0.03504 c -0.08761,0.07008 -0.183975,0.113889 -0.297865,0.140171 -0.11389,0.02628 -0.219018,0.06133 -0.324147,0.09637 0.0088,0.09637 0.0438,0.175214 0.09637,0.254061 0.0438,0.07885 0.08761,0.140172 0.131411,0.219018 0.183975,-0.03504 0.35043,-0.08761 0.525644,-0.157693 0.166454,-0.07885 0.341669,-0.140172 0.516884,-0.192736 h 0.03504 c -0.07009,0.210258 -0.148933,0.411755 -0.227779,0.622012 -0.07885,0.219019 -0.175215,0.420516 -0.297865,0.622013 h -0.03504 l 0.03504,0.297865 h 0.0438 v -0.0438 l 0.11389,-0.05256 0.02628,-0.09637 h 0.0438 l 0.01752,-0.05257 h 0.0438 l 0.175215,-0.183975 v -0.0438 c 0.07885,-0.0438 0.166454,-0.08761 0.262822,-0.113889 0.08761,-0.02628 0.166454,-0.05257 0.254061,-0.06133 h 0.07885 c -0.07885,0.297866 -0.201497,0.569449 -0.35919,0.814749 -0.166454,0.262822 -0.315387,0.525645 -0.455559,0.797228 l 0.07885,0.262822 h 0.03504 l 0.02628,-0.03504 0.07885,-0.03504 0.105129,-0.131411 c 0.02628,-0.0438 0.06133,-0.08761 0.105129,-0.131411 0.0438,-0.03504 0.07009,-0.08761 0.07009,-0.148933 h 0.06133 l 0.140171,-0.210258 h 0.07885 c 0.0088,0.06133 0.01752,0.122651 0.01752,0.183976 0,0.06133 0.0088,0.12265 0.03504,0.166454 -0.03504,0.219018 -0.105129,0.402994 -0.201497,0.58697 -0.09637,0.175214 -0.192737,0.35919 -0.271583,0.534405 h -0.03504 z m 1.839756,-1.051289 -0.01752,0.01752 c -0.113889,0.0088 -0.210258,0 -0.297865,-0.0438 -0.09637,-0.0438 -0.183975,-0.07885 -0.271583,-0.12265 l -0.0438,-0.105129 c 0.07885,-0.219019 0.175215,-0.411755 0.297866,-0.613252 0.12265,-0.183976 0.227779,-0.385473 0.332908,-0.59573 h 0.03504 l 0.157693,-0.315387 0.210258,-0.227779 0.07885,-0.08761 0.07885,-0.148932 -0.0088,-0.07885 c -0.06133,-0.0438 -0.131411,-0.07885 -0.201497,-0.09637 -0.07885,-0.01752 -0.148932,-0.02628 -0.219018,-0.02628 v -0.05256 l 0.47308,-0.07885 0.157693,0.01752 c -0.0438,0.455559 -0.11389,0.902356 -0.201497,1.340393 -0.105129,0.438037 -0.297865,0.849792 -0.560687,1.217743 z m -4.704518,-0.665816 0.11389,-0.01752 c 0.02628,-0.08761 0.07009,-0.166455 0.148932,-0.23654 0.07009,-0.06133 0.131411,-0.131412 0.183976,-0.210258 h 0.03504 l 0.376712,-0.446798 0.05256,-0.12265 h 0.03504 c 0.06133,-0.08761 0.12265,-0.175215 0.192736,-0.254062 0.06133,-0.07885 0.11389,-0.166454 0.148933,-0.271583 l 0.07885,-0.01752 0.06133,-0.140172 h 0.03504 l 0.271583,-0.385473 v -0.01752 l -0.665817,0.446798 h -0.03504 c 0.02628,-0.175215 0.05256,-0.35043 0.07885,-0.516884 0.02628,-0.175215 0.09637,-0.332908 0.192736,-0.481841 l 0.09637,0.01752 h 0.105129 l 0.148932,-0.11389 v -0.01752 h 0.01752 l -0.0438,-0.07009 0.131411,-0.201497 -0.0438,-0.280344 -0.350429,-0.105129 -0.06133,-0.166454 0.01752,-0.157693 -0.03504,-0.262823 0.01752,-0.05256 c 0,-0.08761 -0.0088,-0.175215 -0.03504,-0.254061 -0.01752,-0.07885 -0.05256,-0.157694 -0.09637,-0.22778 -0.03504,-0.02628 -0.07885,-0.05256 -0.12265,-0.07885 -0.05256,-0.02628 -0.105129,-0.03504 -0.166454,-0.03504 l -0.105129,0.01752 v 0.07885 l -0.06133,0.01752 -0.01752,0.08761 h -0.03504 l 0.03504,0.12265 0.09637,0.0438 0.02628,0.131411 -0.02628,0.09637 0.06133,0.639534 v 0.140172 l -0.157694,-0.03504 -0.219018,0.01752 v 0.06133 l -0.05256,0.03504 -0.201497,0.289104 c -0.08761,0.0438 -0.175214,0.07885 -0.271583,0.09637 -0.09637,0.03504 -0.175214,0.07885 -0.271582,0.122651 l -0.09637,-0.03504 h -0.07885 v 0.03504 h -0.105129 v 0.01752 c 0.07885,0.0438 0.157693,0.09637 0.219018,0.166454 0.06133,0.06133 0.131411,0.131411 0.192737,0.192736 0.08761,0.11389 0.192736,0.183976 0.324147,0.201497 0.12265,0.01752 0.254061,0.01752 0.394233,0.01752 l 0.05256,-0.0088 0.06133,0.0088 0.08761,-0.0088 -0.01752,-0.05256 0.01752,-0.140172 h 0.08761 c 0,0.148932 -0.0088,0.289104 -0.01752,0.438037 -0.01752,0.140172 -0.0438,0.280344 -0.07009,0.420515 -0.09637,0.11389 -0.219018,0.22778 -0.350429,0.332909 -0.148933,0.105128 -0.271583,0.201497 -0.385473,0.315386 -0.0438,0.07885 -0.105129,0.122651 -0.183975,0.148933 -0.07009,0.01752 -0.148933,0.0438 -0.210258,0.08761 0,0.02628 0,0.05256 0.0088,0.07885 0.0088,0.02628 0.01752,0.0438 0.0438,0.05256 l 0.254062,0.394234 z m 3.90729,-0.07009 -0.01752,0.01752 -0.131411,-0.394234 v -0.148932 l 0.166454,-0.201497 0.341669,-0.23654 h 0.03504 c -0.03504,0.166454 -0.08761,0.332908 -0.157694,0.48184 -0.07885,0.166454 -0.157693,0.315387 -0.23654,0.481841 z m 0.341669,-1.270307 -0.01752,0.01752 h -0.06132 l 0.175214,-0.350429 0.315387,-0.122651 h 0.07885 c 0.0088,0.0438 0.0088,0.05257 -0.01752,0.05257 -0.02628,0 -0.0438,0 -0.07009,0 l -0.01752,0.07009 c -0.0438,0.07885 -0.09637,0.131411 -0.166454,0.175214 -0.07885,0.0438 -0.157694,0.105129 -0.219019,0.157694 z m 0.297865,-1.682062 -1.165178,0.254061 h -0.12265 v -0.03504 l 0.06133,-0.01752 v -0.03504 c 0.131411,-0.07885 0.271583,-0.148933 0.411755,-0.22778 0.12265,-0.07885 0.262822,-0.148932 0.402994,-0.23654 l 0.148932,0.01752 0.09637,0.157693 c 0.01752,0.0438 0.0438,0.06133 0.07885,0.06133 0.02628,0 0.06133,0 0.08761,0 z m -0.735902,-0.683338 -0.148932,0.07009 h -0.06133 l 0.157694,-0.175215 0.411755,-0.280344 h 0.06132 l -0.02628,0.367951 -0.131412,-0.07009 h -0.148932 v 0.02628 z m -0.464319,-0.01752 -0.08761,0.03504 h -0.07009 l -0.01752,-0.105129 v -0.23654 l 0.148933,0.0438 0.131411,-0.0438 h 0.113889 z" />
    </g>
  </g>
</svg>
